HIERARCHY
ROOT Hips
{
	OFFSET 0.000000 0.000000 0.000000
	CHANNELS 6 Xposition Yposition Zposition Zrotation Yrotation Xrotation 
	JOINT LeftUpLeg_virtual
	{
		OFFSET 0.000000 0.000000 0.000000
		CHANNELS 3 Zrotation Yrotation Xrotation
		JOINT LeftUpLeg
		{
			OFFSET 10.205400 -3.823500 0.155100
			CHANNELS 3 Zrotation Yrotation Xrotation
			JOINT LeftLeg
			{
				OFFSET 0.708757 -12.982077 0.567790
				CHANNELS 3 Zrotation Yrotation Xrotation
				JOINT LeftFoot
				{
					OFFSET -0.708756 -10.717838 -2.184338
					CHANNELS 3 Zrotation Yrotation Xrotation
					JOINT LeftToeBase
					{
						OFFSET 0.108149 -7.191104 7.560241
						CHANNELS 3 Zrotation Yrotation Xrotation
						End Site
						{
							OFFSET 0.000000 0.000000 0.000000
						}
					}
				}
			}
		}
	}
	JOINT RightUpLeg_virtual
	{
		OFFSET 0.000000 0.000000 0.000000
		CHANNELS 3 Zrotation Yrotation Xrotation
		JOINT RightUpLeg
		{
			OFFSET -10.205400 -3.823500 0.005500
			CHANNELS 3 Zrotation Yrotation Xrotation
			JOINT RightLeg
			{
				OFFSET -0.708756 -12.982134 0.610632
				CHANNELS 3 Zrotation Yrotation Xrotation
				JOINT RightFoot
				{
					OFFSET 0.708754 -10.717769 -1.945823
					CHANNELS 3 Zrotation Yrotation Xrotation
					JOINT RightToeBase
					{
						OFFSET -0.108140 -7.191069 7.372968
						CHANNELS 3 Zrotation Yrotation Xrotation
						End Site
						{
							OFFSET 0.000000 0.000000 0.000000
						}
					}
				}
			}
		}
	}
	JOINT Spine_virtual
	{
		OFFSET 0.000000 0.000000 0.000000
		CHANNELS 3 Zrotation Yrotation Xrotation
		JOINT Spine
		{
			OFFSET 0.000000 6.876099 0.125700
			CHANNELS 3 Zrotation Yrotation Xrotation
			JOINT Spine1
			{
				OFFSET 0.000000 8.022060 0.146608
				CHANNELS 3 Zrotation Yrotation Xrotation
				JOINT Spine2
				{
					OFFSET 0.000000 9.168068 0.167552
					CHANNELS 3 Zrotation Yrotation Xrotation
					JOINT Neck_virtual
					{
						OFFSET 0.000000 0.000000 0.000000
						CHANNELS 3 Zrotation Yrotation Xrotation
						JOINT Neck
						{
							OFFSET 0.000000 10.314075 0.188496
							CHANNELS 3 Zrotation Yrotation Xrotation
							JOINT Head
							{
								OFFSET 0.000000 7.643700 -2.377400
								CHANNELS 3 Zrotation Yrotation Xrotation
								End Site
								{
									OFFSET 0.000000 0.000000 0.000000
								}
							}
						}
					}
					JOINT LeftShoulder_virtual
					{
						OFFSET 0.000000 0.000000 0.000000
						CHANNELS 3 Zrotation Yrotation Xrotation
						JOINT LeftShoulder
						{
							OFFSET 4.392200 8.824978 0.174984
							CHANNELS 3 Zrotation Yrotation Xrotation
							JOINT LeftArm
							{
								OFFSET 8.771219 -2.981674 -0.026999
								CHANNELS 3 Zrotation Yrotation Xrotation
								JOINT LeftForeArm
								{
									OFFSET 8.512804 0.000000 -0.000000
									CHANNELS 3 Zrotation Yrotation Xrotation
									JOINT LeftHand
									{
										OFFSET 18.484802 0.000000 -0.000000
										CHANNELS 3 Zrotation Yrotation Xrotation
										End Site
										{
											OFFSET 0.000000 0.000000 0.000000
										}
									}
								}
							}
						}
					}
					JOINT RightShoulder_virtual
					{
						OFFSET 0.000000 0.000000 0.000000
						CHANNELS 3 Zrotation Yrotation Xrotation
						JOINT RightShoulder
						{
							OFFSET -4.392200 8.824993 0.141379
							CHANNELS 3 Zrotation Yrotation Xrotation
							JOINT RightArm
							{
								OFFSET -8.771282 -2.981682 -0.094208
								CHANNELS 3 Zrotation Yrotation Xrotation
								JOINT RightForeArm
								{
									OFFSET -8.494598 0.000000 0.000000
									CHANNELS 3 Zrotation Yrotation Xrotation
									JOINT RightHand
									{
										OFFSET -18.483803 0.000000 0.000001
										CHANNELS 3 Zrotation Yrotation Xrotation
										End Site
										{
											OFFSET 0.000000 0.000000 0.000000
										}
									}
								}
							}
						}
					}
				}
			}
		}
	}
}
MOTION
Frames: 9
Frame Time: 0.033333
11.455430 36.180569 12.611862 -179.865341 1.078937 179.716006 -2.266524 -4.255595 5.968252 -1.466932 4.024489 -30.443137 12.874810 6.210988 23.768790 0.717718 1.944250 12.676122 0.000000 0.000000 0.000000 2.917712 -3.009341 2.809634 8.176626 5.318759 -15.812747 -4.393946 0.483621 18.697129 3.899153 7.539602 6.537911 0.000000 0.000000 0.000000 1.403430 -1.429928 -4.925599 -0.510801 2.606356 -4.229070 -0.677647 -2.362716 6.821091 -0.009207 0.029966 -0.068159 -1.386973 -0.293839 8.972957 -5.418036 4.047031 9.422476 0.000000 0.000000 0.000000 0.228439 0.448022 6.209500 0.032892 -7.684432 0.009137 -18.033663 2.464121 -23.910023 -1.590055 -63.001870 0.660609 0.000000 0.000000 0.000000 -3.190304 1.369796 6.069549 21.521308 4.956074 -0.880464 28.913632 -10.382593 -7.897231 0.824886 33.710604 -4.093834 0.000000 0.000000 0.000000 
11.612278 36.276524 12.631692 179.953464 1.449484 179.630915 -2.066576 -3.897536 5.819966 -1.040753 3.204389 -29.819096 11.556403 5.627511 23.745313 -0.642247 0.981754 13.637420 0.000000 0.000000 0.000000 2.989570 -2.607921 2.698095 8.460204 5.126778 -15.297356 -4.630745 0.644445 17.968409 3.732696 7.587503 6.945061 0.000000 0.000000 0.000000 1.377392 -1.136798 -5.009201 -0.516908 2.503930 -4.764693 -0.551629 -2.556786 6.616353 0.025740 0.054942 -0.002348 -1.208267 -0.493999 8.694100 -5.085942 4.461693 10.274034 0.000000 0.000000 0.000000 0.370262 0.172382 5.866835 0.771395 -7.432380 -0.558198 -15.104221 2.279384 -26.136607 -1.010131 -59.379527 -0.096007 0.000000 0.000000 0.000000 -2.998631 1.072221 5.660635 20.518870 5.214635 -1.139779 26.281328 -8.120985 -13.166838 1.012509 33.240936 -4.235530 0.000000 0.000000 0.000000 
11.704134 36.356106 12.509633 179.794430 1.816559 179.726224 -1.992683 -3.237436 5.600871 -0.694830 2.861490 -29.121365 10.499709 5.312355 23.078675 -1.811913 0.196681 14.103584 0.000000 0.000000 0.000000 2.917451 -1.953313 2.653459 8.765235 4.763912 -14.823805 -4.878621 0.888418 17.417930 3.653846 7.605154 7.419716 0.000000 0.000000 0.000000 1.311576 -0.719298 -5.323262 -0.483175 2.233334 -5.559346 -0.392422 -2.811759 6.389778 -0.000324 0.026154 -0.053284 -1.011172 -0.961279 8.573574 -4.674143 4.840373 11.122574 0.000000 0.000000 0.000000 0.611443 -0.006810 5.689440 1.294818 -7.209664 -1.153357 -12.366477 2.197868 -27.691142 -0.615605 -55.909364 -0.525209 0.000000 0.000000 0.000000 -2.735493 0.802750 5.567677 19.361991 5.636549 -1.658907 23.568019 -5.888529 -17.623882 1.122499 33.310675 -4.202980 0.000000 0.000000 0.000000 
11.738994 36.416355 12.301450 179.874207 2.174755 179.748203 -1.921559 -2.499497 5.487211 -0.376845 2.866230 -28.235152 9.922463 5.245259 21.870884 -2.363507 -0.070496 14.411720 0.000000 0.000000 0.000000 2.948669 -1.271125 2.770328 9.041016 4.712648 -14.300814 -5.148675 1.175005 16.989495 3.620219 7.427752 7.965987 0.000000 0.000000 0.000000 1.392747 -0.312563 -5.564477 -0.357761 2.013535 -6.432136 -0.173470 -2.917904 6.182408 0.017921 0.111343 -0.031258 -0.756402 -1.010054 8.327254 -4.174751 5.134582 12.159110 0.000000 0.000000 0.000000 0.753165 -0.310399 5.477864 1.604143 -7.266892 -1.699163 -9.650257 1.922594 -29.255104 -0.054956 -52.845945 -1.000654 0.000000 0.000000 0.000000 -2.577072 0.529428 5.258102 18.190763 5.930962 -1.928880 20.727894 -3.779872 -21.392149 1.066607 34.213568 -4.123525 0.000000 0.000000 0.000000 
11.733670 36.463089 12.063158 179.876187 2.522180 179.713998 -1.903393 -1.859945 5.458258 -0.243245 3.183760 -27.225937 9.514654 5.320826 20.626625 -2.571007 -0.055925 14.493130 0.000000 0.000000 0.000000 2.854065 -0.641962 2.988060 9.138483 5.027777 -13.803275 -5.405335 1.089607 16.723489 3.618076 7.198658 8.422996 0.000000 0.000000 0.000000 1.448090 0.236510 -5.718053 -0.243389 1.580018 -7.267594 0.047978 -2.987665 5.958177 0.025320 0.021568 -0.030856 -0.505834 -1.202084 8.090269 -3.587313 5.400429 13.240294 0.000000 0.000000 0.000000 0.936315 -0.426876 5.259316 1.665275 -7.272984 -2.317567 -7.053767 1.472223 -30.913528 0.449177 -50.493878 -1.301116 0.000000 0.000000 0.000000 -2.411045 0.391702 5.034277 17.066208 6.280064 -2.246712 17.643053 -1.714598 -24.427419 0.873757 35.980426 -3.933990 0.000000 0.000000 0.000000 
11.695107 36.504005 11.853280 179.827597 2.854544 179.833540 -1.855908 -1.382575 5.352485 -0.320063 3.673925 -26.346872 9.140262 5.560565 19.714031 -2.690669 0.018419 14.392023 0.000000 0.000000 0.000000 2.738892 -0.050307 3.093074 9.124907 5.095705 -13.513422 -5.543114 0.924797 16.512114 3.747964 7.089835 8.715717 0.000000 0.000000 0.000000 1.507374 0.674753 -5.842731 -0.194574 1.234790 -8.282123 0.238612 -3.261661 5.834405 0.031674 0.018771 -0.052637 -0.249934 -1.321308 8.067943 -2.971153 5.564329 14.352936 0.000000 0.000000 0.000000 1.135532 -0.487556 5.109104 1.505591 -7.329016 -2.962656 -4.558255 0.983251 -32.693872 0.974248 -49.272541 -1.542783 0.000000 0.000000 0.000000 -2.229292 0.312619 4.956844 16.197734 6.589804 -2.796627 14.358639 0.251868 -27.040065 0.764549 38.514535 -3.451948 0.000000 0.000000 0.000000 
11.638849 36.545605 11.680540 179.871597 3.240908 179.907060 -1.761981 -1.001749 5.222326 -0.527099 4.500263 -25.618103 8.655643 5.729399 19.124362 -2.795180 0.050064 14.129411 0.000000 0.000000 0.000000 2.755882 0.442224 3.185870 9.018639 5.194889 -13.287953 -5.588881 0.871665 16.356286 3.997835 6.963015 8.895836 0.000000 0.000000 0.000000 1.663049 0.912911 -5.918481 -0.157611 0.945128 -9.145347 0.475577 -3.230209 5.759172 0.033011 0.106573 -0.024529 0.011449 -1.380779 8.009461 -2.338571 5.608446 15.455618 0.000000 0.000000 0.000000 1.338333 -0.601873 5.042887 1.206326 -7.570970 -3.457556 -2.219496 0.404819 -34.551127 1.651432 -49.126313 -1.869210 0.000000 0.000000 0.000000 -2.031892 0.213489 4.816866 15.715335 6.631422 -3.202394 10.830388 2.148137 -29.572475 0.420804 41.589275 -3.021860 0.000000 0.000000 0.000000 
11.563061 36.592052 11.565441 179.848320 3.581738 179.857896 -1.755660 -0.760831 5.119975 -0.631665 5.406310 -24.978485 8.243217 6.489871 18.846148 -2.812301 0.076663 14.184141 0.000000 0.000000 0.000000 2.762701 0.719528 3.263649 8.772540 5.323467 -13.068649 -5.547550 0.733849 16.226924 4.294425 6.946431 9.020977 0.000000 0.000000 0.000000 1.756454 1.227649 -5.945568 -0.206428 0.460847 -9.887038 0.676253 -3.302036 5.714480 0.027699 0.017571 -0.043176 0.283098 -1.320049 8.021315 -1.655390 5.611316 16.608689 0.000000 0.000000 0.000000 1.567058 -0.498979 4.970794 0.715166 -7.702518 -3.954027 -0.003600 -0.396530 -36.075714 2.252275 -50.051981 -2.098502 0.000000 0.000000 0.000000 -1.867887 0.325556 4.721104 15.683665 6.705447 -3.626032 6.946227 4.179712 -32.393275 0.145451 44.980839 -2.488552 0.000000 0.000000 0.000000 
11.471843 36.641945 11.486743 179.827884 3.881771 179.836955 -1.766632 -0.666343 5.006434 -0.535320 6.425659 -24.568373 7.862384 7.105112 19.186461 -2.549504 0.235991 14.414605 0.000000 0.000000 0.000000 2.794164 0.848946 3.246642 8.450103 5.440945 -12.838564 -5.461226 0.615423 16.106180 4.620834 6.983547 9.130551 0.000000 0.000000 0.000000 1.838025 1.352836 -5.981579 -0.300486 0.036029 -10.535055 0.881163 -3.241008 5.725179 0.014224 0.016350 -0.021734 0.550455 -1.254416 8.066969 -1.004707 5.552648 17.678309 0.000000 0.000000 0.000000 1.808726 -0.419227 4.897826 0.127835 -7.882184 -4.321897 2.141866 -1.063008 -37.250551 2.875830 -51.847495 -2.347100 0.000000 0.000000 0.000000 -1.666661 0.420428 4.629095 16.115594 6.648068 -4.130919 2.729195 6.240432 -35.468554 0.145513 48.560777 -1.584278 0.000000 0.000000 0.000000 
